<svg xmlns="http://www.w3.org/2000/svg" xmlns:xlink="http://www.w3.org/1999/xlink" width="203" height="130" viewBox="0 0 203 130">
    <defs>
        <path id="a" d="M.37.444h107.5v90.382H.37z"/>
    </defs>
    <g fill="none" fill-rule="evenodd">
        <g transform="translate(48)">
            <mask id="b" fill="#fff">
                <use xlink:href="#a"/>
            </mask>
            <path fill="#000" d="M98.657 29.769c-.524-4.823-6.533-10.184-13.67-9.428 2.992-4.417 1.446-11.721-10.468-10.357-4.68.537-8.475 3.713-11.556 8.027-4.234-1.902-7.468-3.486-10.047-4.833 1.046-.728 2.056-1.392 2.982-2.002 1.633.838 3.382 1.402 5.138 1.63 6.86.9 7.325-9.265-1.861-5.252-.922.4-1.82.856-2.7 1.347-1.812-1.138-3.362-2.658-4.363-4.004.225-.355.44-.702.634-1.056 2.543-4.487-6.37-4.432-4.522-.41.282.61.609 1.202.973 1.766A17.541 17.541 0 0 1 45.337 9c-1.372-.755-2.615-1.401-3.99-1.975-6.848-2.875-12.566 5.297-2.028 5.687 2.281.093 4.402-.517 6.29-1.546 1.26.665 2.652 1.42 4.13 2.211-2.243 1.684-4.532 3.486-6.99 5.252-12.967-11.238-28.005-3.048-25.519 6.225-2.503 2.312-4.559 4.886-5.513 7.49-10.042-.102-13.371 11.464-8.57 19.575C-2.836 58.981.688 74.168 15.314 71.27c4.627 3.805 10.373 3.814 15.55 1.52 1.793 2.03 2.944 3.859 4.025 5.424-2.9 3.445 2.319 11.863 10.42 8.473.02-.046.028-.082.046-.12.01.03.02.065.02.093-.02.008-.038.017-.066.027-.737 1.882-.803 4.14.972 4.14 1.784 0 3.587-.427 2.682-3.567 2.157 1.23 4.756 1.892 8.176 1.292 2.89-.51 4.234-2.284 4.402-4.132 6.951-1.264 10.335-3.694 14.782-8.454 5.737 2.621 12.862-.412 15.652-3.922.176.026.355.054.543.072 12.285 1.411 14.2-10.475 10.613-17.2 8.065-5.934 5.354-22.088-4.474-25.146M60.577 8.546c3.768-1.42 5.795 2.157.917 2.047-1.138-.026-2.272-.327-3.346-.8.982-.582 1.815-1.01 2.43-1.247M39.01 11.204c-4.522-.31-3.81-3.568.16-2.958.822.127 2.362.82 4.402 1.857-1.496.763-3.058 1.2-4.562 1.1m56.373 19.76a5.336 5.336 0 0 1-.222 1.783c-.963 3.303-5.608-1.303-.554-1.748.263-.027.524-.036.776-.036m-27.33-14.98c3.372-3.586 10.511-5.087 12.847-.692 1.476 2.784.011 5.742-3.96 6.398-4.722-6.744-8.175-5.423-8.102-1.174-.43-.155-2.326-.955-2.953-1.22.395-1.18 1.531-2.64 2.168-3.312m4.588 7.59c.626.136 1.224.236 1.795.29.139.02.279.028.42.037 1.213 3.53 2.111 9.156 2.803 14.098-.618.08-1.26.19-1.937.355-.118-5.57-2.072-11.331-3.08-14.78m-.095 20.395c-1.512 3.95-6.71-.8.057-3.267.112-.047.224-.083.335-.11.047 1.402-.074 2.558-.392 3.377m-.439-22.489c-.061-.584-.061-1.025.308-1.101.537-.11 1.047.573 1.513 1.374a13.793 13.793 0 0 1-1.821-.273m-6.71-.3c1.225.51 2.42.965 3.561 1.356a16 16 0 0 0 .57 2.32c1.71 5.234 2.99 10.485 3.327 14.353-.234.081-.467.173-.712.264-10.977 4.321-.053 12.95 2.628 5.46.564-1.58.868-3.276.943-5.024a11.51 11.51 0 0 1 2.196-.109c.214 1.556.4 3.003.579 4.241.364 2.567.756 6.426 1.56 10.457-.989.155-2.102.19-3.355.073a12.228 12.228 0 0 0-.14-.919c-.906-4.933-6.15.5-2.233 1.766.14 4.613-1.373 8.718-3.765 11.493-2.917-5.269-4.766-12.74-6.009-20.667-1.7-10.83-.58-19.203.85-25.064m2.936 47.76c-2.58 1.794-5.753 2.534-8.798 1.078 2.267-2.957 2.3-6.12-.693-7.29-5.084-1.99-9.267 4.39-2.966 8.899-1.792 1.736-3.672 3.047-3.766 3.567-.037-.455-1.139-1.764-2.317-3.476 5.93-3.099 3.772-8.804-.56-9.175-3.19-.273-7.084 2.63-3.477 8.336-2.99.802-6.71.748-9.213-1.72.355-.3.71-.618 1.047-.946 7.483-7.208 10.708-22.998 9.736-36.175 2.691 6.47 3.812 12.777 4.064 14.423-.933 2.358-.55 4.934 1.167 4.934 2.263 0 2.647-1.32 2.104-4.168 1.131-5.398 2.693-11.677 5.103-17.602-1.253 15.162 2.25 30.37 8.569 39.316m-9.326-1.92c-.168.656-.832 1.54-1.224 2.158-.3-.208-.54-.459-.803-.74-3.49-3.71 3.017-5.286 2.027-1.418m-10.467 2.758c-.653-1.165-1.138-2.314-1.046-3.213.251-2.45 3.951-1.738 3.123 1.292-.162.59-.936 1.302-2.077 1.92M47.28 10.095a18.605 18.605 0 0 0 3.272-3.085 17.344 17.344 0 0 0 3.7 3.221 62.619 62.619 0 0 0-3.02 2.057 201.8 201.8 0 0 1-3.952-2.193m4.073 4.167c3.329 1.784 6.982 3.704 10.533 5.352-4.159 6.507-6.915 14.97-8.784 21.087-1.74-9.903-5.13-16.719-9.335-21.069 2.437-1.738 5.084-3.64 7.577-5.37m-17.08 2.612c1.444.444 3.867 1.98 5 4.131a57.553 57.553 0 0 1-5.111 2.968c0-3.03.026-5.615.111-7.099m-3.972-.9c.514.044 1.02.108 1.506.2-3.057.864-7.814 3.294-12 6.525-.382-3.322 2.908-7.344 10.494-6.726m.944 23.79c-.345.018-.72.055-1.093.11a24.424 24.424 0 0 0-3.802.791c.157-4.395.392-8.591.906-12.105a27.47 27.47 0 0 0 4.025-1.292 846.313 846.313 0 0 0-.036 12.497m-7.007-12.98c-1.973-.263-3.308-1.274-3.973-2.575 2.486-2.002 5.308-3.703 7.915-4.94-1.943 1.727-3.157 4.357-3.942 7.516m3.355-.173c.737-3.813 1.913-6.57 3.85-7.472-.059 1.402-.105 3.613-.143 6.189-.868.406-2.865 1.11-3.707 1.283m-14.176 7.8c.316.09.636.208.964.364 3.027 1.419-.739 4.25-.983.883a7.077 7.077 0 0 1 .019-1.248m.298 34.966c-6.062.982-12.12-8.428-8.744-15.262.867.8 1.924 1.483 3.174 2.02 7.514 3.222 7.981-11.84-1.437-7.171-.366.182-.71.383-1.045.61-3.355-6.307.204-14.826 5.577-15.371-.186 1.237-.184 2.516.344 3.694 2.076 4.628 9.346-1.811 4.702-4.396a9.449 9.449 0 0 0-2.487-.964c.682-2.147 2.149-4.224 4.038-6.125 1.15 2.03 3.354 2.73 5.925 2.649-.693 3.93-.89 8.482-1.047 13.068-8.074 4.37-7.625 13.114-1.17 15.907-.28 1.484-.623 2.869-1.092 4.114-7.475-1.865-8.905 3.468-6.738 7.227M6.944 51.458c.26-.256.54-.502.84-.73 3.625-2.785 4.39 4.073 1.083 2.53-.842-.393-1.393-1.156-1.923-1.8m15.698-6.964c-.131 3.787-.272 7.535-.704 10.922-3.446-2.531-3.848-7.673.704-10.922M16.81 67.856c-1.934-2.593-1.11-5.034 2.711-3.595-.833 1.584-1.75 2.766-2.711 3.595m1.83 1.82c1.384-1.02 2.563-2.402 3.533-4.059l.17.11c2.999 1.902 5.213 3.713 6.942 5.405-4.702 1.685-9.33-.263-10.645-1.455m13.233.19c-2.812-3.267-5.868-5.534-8.466-6.698.578-1.338 1.047-2.794 1.44-4.314 1.877.182 4.064-.036 6.512-.773-.413 3.54-.195 7.817 1.682 10.948a10.62 10.62 0 0 1-1.168.837m.523-16.572a20.211 20.211 0 0 0-.711 2.657c-2.41.947-4.567 1.147-6.381.838.458-2.376.71-4.879.786-7.362.062-2.24.12-4.497.196-6.735 1.13-.374 2.42-.666 3.858-.857.392-.054.758-.09 1.102-.118.027 2.458.066 4.196.13 4.597.291 1.801 2.14 3.603 5.226 2.43 2.876-1.112 3.822-7.664-2.308-8.829-.038-3.84-.114-9.218-.131-13.951.681-.346 1.317-.691 1.886-1.037.991-.592 2.318-1.493 3.871-2.567 3.37 7.535 4.876 21.023-.133 35.94-1.307 3.885-2.944 6.743-4.727 8.79-1.122-2.193-1.628-5.397-1.095-9.956.851-.364 1.73-.783 2.637-1.265 3.288-1.765-2.682-6.899-4.206-2.575m1.925-11.513c2.206.437 2.41 1.821 2.662 3.168.412 2.138-2.652 3.112-2.644-.61 0-.574-.008-1.457-.018-2.558M40 84.89c-4.27-2.349-3.952-8.96 1.74-3.92.71.629 2.459 2.388 3.19 4.113-1.671.36-3.107.818-4.93-.193m15.205 1.158c-2.083 0-3.55-.482-5.083-1.448 1.88-1.644 4.353-3.027 5.785-3.404 3.632-.959 5.138 4.852-.702 4.852m6.319-3.363c-.996-3.979-5.045-5.616-12.963.843-3.066-2.402-5.346-5.807-8.149-6.88-1.42-.546-2.803-.41-3.914.163a32.808 32.808 0 0 0-3.27-5.251c.401-.237.804-.491 1.196-.765 2.24 2.22 5.878 3.305 11.557 2.067.356-.082.7-.164 1.028-.264.337.4.7.82 1.113 1.246 3.12 3.268 1.655 5.042 3.633 5.042 2.282 0 2.88-3.14 4.038-4.423.41-.455 1.037-1.129 1.71-1.92 3.383 1.42 9.29 1.692 13.081-.819 1.196 1.302 2.479 2.385 3.832 3.23-3.869 4.396-7.248 6.62-12.892 7.731m14.472-9.596c-1.252-.764-2.394-1.81-3.412-3.103 3.372-3.74 4.457-9.62 4.234-14.034 1.298.201 2.494.265 3.589.21.738 3.258 1.765 6.534 3.278 9.273-2.27 1.548-5.082 4.463-7.689 7.654m6.745-31.68c3.924 2.757 4.72 8.391 1.327 11.34-.55-3.668-.906-7.563-1.327-11.34m-1.27 33.117a9.867 9.867 0 0 1-3.402-.473c1.09-1.392 5.148-5.8 6.757-6.798 1.28 1.784 2.83 3.213 4.747 4.059-1.645 1.657-4.289 3.085-8.102 3.212m9.727-5.496c-1.27-.873-2.317-2.039-3.188-3.422 2.304-.626 4.814.113 3.188 3.422m6.522-18.466c-6.383-.992-7.859 7.954.86 6.29a11.315 11.315 0 0 0 2.494-.765c2.01 6.097-1.018 16.572-7.745 14.06 3.603-6.162-2.509-8.627-6.383-6.498-1.121-2.403-1.886-5.26-2.456-8.353 8.175-3.36 7.156-15.291-2.142-17.174-.662-5.28-1.605-10.12-3.55-13.496-.149-.256-.29-.51-.438-.746 2.324-.246 3.999-1.002 5.185-1.966 5.036.072 10.29 3.303 11.558 7.344-6.502-.236-4.75 5.908-1.66 6.426 3.781.636 4.867-2.886 5.12-3.997 6.148 3.104 6.622 15.226 2.568 20.586-.971-.9-2.121-1.51-3.411-1.711m2.065 3.104c-.785.61-1.681 1.01-2.69 1.138-4.534.573-1.841-4.033 1.326-2.303.524.29.982.682 1.364 1.165" mask="url(#b)"/>
        </g>
        <path fill="#000" d="M52.26 124.781c.013-.112 0-.15-.04-.15-.051 0-.064.013-.116.025-.533.176-1.416.414-1.883.552-.065.012-.078.037-.143.225-.052.126-.026.15.026.163.506.113.584.15.584.213.026.288.04.564.04 1.291 0 .79-.04 1.642-.053 1.843-.026.35-.22.388-.584.463-.052.013-.091.026-.091.076 0 .112 0 .263.013.3.026.05.052.063.104.063.039 0 .506-.075 1.104-.075.493 0 1 .025 1.493.025.09 0 .13 0 .13-.1l.052-.376c0-.05-.065-.126-.104-.126-.039 0-.117 0-.416.038-.168.013-.22-.05-.233-.226-.026-.188-.013-.438-.013-.977 0-.652.078-2.42.13-3.247zm-.364-2.97c-.247 0-.948 1.103-1.312 1.892l.208.251c.195.226.208.226.325.15.143-.087 1.246-1.203 1.818-1.629.039-.025.09-.138-.065-.263-.247-.188-.636-.401-.961-.401h-.013zm6.545 2.97c.013-.112 0-.15-.04-.15-.051 0-.064.013-.116.025-.532.176-1.415.414-1.883.552-.065.012-.078.037-.143.225-.052.126-.026.15.026.163.507.113.585.15.585.213.026.288.038.564.038 1.291 0 .79-.038 1.642-.051 1.843-.026.35-.221.388-.585.463-.052.013-.09.026-.09.076 0 .112 0 .263.012.3.026.05.052.063.104.063.04 0 .507-.075 1.104-.075.493 0 1 .025 1.493.025.091 0 .13 0 .13-.1l.052-.376c0-.05-.065-.126-.104-.126-.039 0-.117 0-.415.038-.17.013-.221-.05-.234-.226-.026-.188-.013-.438-.013-.977 0-.652.078-2.42.13-3.247zm-.364-2.97c-.247 0-.948 1.103-1.311 1.892l.207.251c.195.226.208.226.325.15.143-.087 1.247-1.203 1.818-1.629.039-.025.091-.138-.065-.263-.247-.188-.636-.401-.96-.401h-.014zm5.816 6.605c0-1.04-1.142-1.529-1.636-1.767-.403-.2-.948-.464-.948-.852 0-.414.299-.677.558-.677.585 0 .961.74 1.13.99.104.15.247.213.429.213.09 0 .195-.088.182-.188-.17-.514-.247-.927-.26-1.278 0-.063 0-.088-.052-.113-.052-.038-.078-.038-.104-.013-.065.025-.143.025-.26.025-.181 0-.48-.05-.987-.05-.428 0-.96.176-1.337.451-.403.301-.572.665-.572 1.09.013.878.974 1.317 1.299 1.492.39.214 1.182.527 1.182 1.016 0 .426-.416.702-.676.702-.26 0-.649-.15-.96-.552a9.249 9.249 0 0 1-.689-1.015c-.169.037-.298.1-.35.125-.04.038-.026.1-.026.176.117.551.078.902.026 1.429-.013.075 0 .112.09.15.053.025.104.038.13.025.143-.125.221-.113.468-.05.208.075.675.138 1.09.138.52 0 1.208-.138 1.598-.364.467-.263.675-.589.675-1.09v-.013zm.524 1.379c0 .05.013.05.065.05.675-.063 1.87-.075 2.766-.075.09 0 .168 0 .168-.063.026-.087.052-.263.065-.326.013-.075 0-.125-.116-.125-.078 0-.26.038-.364.038-.364 0-.377-.364-.377-1.805 0-2.457.04-4.588.156-6.192 0-.05-.013-.1-.078-.1-.013 0-.039 0-.065.012-.727.263-1.584.477-2.012.652-.091.038-.13.063-.143.125-.052.226-.052.264 0 .289.623.062.688.087.714.501.026.476.026 1.053.026 2.72a48.83 48.83 0 0 1-.104 3.372c-.013.288-.09.363-.338.476-.09.037-.22.088-.285.125-.052.025-.065.075-.065.15l-.013.176zm6.19-5.051c-.298 0-.752.15-1.155.388-.896.527-1.52 1.354-1.52 2.457 0 .702.325 1.253.56 1.53.194.225.778.764 1.843.764.195 0 .416-.013.584-.063.455-.138 1.013-.401 1.689-.915.103-.075.155-.163.181-.564 0-.075-.168-.075-.285.013-.429.363-.922.589-1.546.589-.805 0-1.402-.602-1.402-1.316 0-.176.039-.2.09-.213.494-.126 2.43-.477 2.897-.64.168-.062.298-.313.337-.438.013-.05.013-.1-.039-.138-.039-.05-.13-.038-.35 0a2.29 2.29 0 0 0-.624-1.028c-.298-.263-.83-.426-1.246-.426h-.013zm.442 1.692c0 .138-.052.213-.156.25-.272.05-.688.138-1.376.264-.039-.627.22-1.379.467-1.554.143-.088.247-.113.312-.113.403 0 .753.551.753 1.14v.013zm2.394 3.271c-.013.088.026.126.078.126.22 0 .597-.063 1.272-.063h1.403l.09-.25c.04-.088.027-.114-.051-.139-.637-.163-.65-.175-.65-.413 0-.84 0-2.256.013-2.72.013-.313.026-.389.104-.426.143-.05.559-.163.857-.163.26 0 .507.088.65.238.194.2.26.551.26 1.203 0 .74 0 1.254-.066 1.768-.051.388-.142.476-.532.626l.039.176c.039.15.078.163.182.163.39 0 1.181-.05 2.415-.05.065 0 .078 0 .104-.063.026-.05.078-.276.078-.389 0-.087-.026-.113-.078-.113-.104.013-.506.05-.623.05-.04 0-.052-.062-.052-.15v-1.68c0-.325 0-.814-.026-1.065-.078-.576-.247-1.028-.61-1.303-.26-.188-.52-.289-.923-.289-.311 0-.519.063-.766.188-.324.163-.649.314-.935.477-.09.05-.13 0-.13-.126 0-.125-.013-.325-.026-.526 0-.113-.051-.138-.13-.138-.13 0-.168.013-.233.05a46.12 46.12 0 0 1-1.493.677c-.182.075-.234.125-.234.15-.04.188.013.264.104.301.506.176.545.238.558.389.039.276.052.702.052 1.153a24.4 24.4 0 0 1-.039 1.492c-.078.4-.208.426-.623.576l-.04.263zm11.075-1.29c0-1.041-1.143-1.53-1.636-1.768-.403-.2-.948-.464-.948-.852 0-.414.299-.677.558-.677.585 0 .961.74 1.13.99.104.15.247.213.429.213.09 0 .194-.088.181-.188-.168-.514-.246-.927-.26-1.278 0-.063 0-.088-.051-.113-.052-.038-.078-.038-.104-.013-.065.025-.143.025-.26.025-.182 0-.48-.05-.987-.05-.428 0-.96.176-1.337.451-.403.301-.572.665-.572 1.09.013.878.974 1.317 1.299 1.492.39.214 1.182.527 1.182 1.016 0 .426-.416.702-.676.702-.26 0-.649-.15-.96-.552a9.249 9.249 0 0 1-.689-1.015c-.169.037-.299.1-.35.125-.04.038-.026.1-.026.176.116.551.077.902.025 1.429-.012.075 0 .112.091.15.052.025.104.038.13.025.143-.125.221-.113.468-.05.208.075.675.138 1.09.138.52 0 1.208-.138 1.598-.364.467-.263.675-.589.675-1.09v-.013zm.543 1.303c0 .062.013.075.078.075.247 0 .727-.025 1.454-.025.896 0 1.221.025 1.299.025.065 0 .09 0 .117-.075a1.47 1.47 0 0 0 .026-.314c0-.15-.026-.175-.104-.175s-.312.025-.468.025c-.142 0-.233-.125-.233-.765v-.952c.013-.1.039-.125.117-.125.116 0 .207.05.324.213.429.601.792 1.015 1.104 1.39.182.214.065.29-.208.364-.039.013-.039.025-.026.113l.065.226c.013.037.026.05.078.05.792.012 1.818.038 2.143.05.234 0 .571.013.65.013.064 0 .103-.025.103-.213 0-.15 0-.188-.09-.214-.676-.188-.793-.325-1.3-.89-.454-.5-1.155-1.403-1.376-1.679-.169-.2-.156-.276-.117-.3.494-.39.818-.64 1.143-.89.376-.289.65-.39.96-.427.13-.012.157-.037.183-.113.065-.138.065-.225.065-.275 0-.063-.04-.076-.078-.076-.767.063-1.702.063-2.325.1-.078 0-.104.026-.117.113l-.078.251c-.013.063.026.1.078.1h.507c.078 0 .169.038.052.176-.312.376-.857.915-1.234 1.228-.182.163-.377.263-.454.263-.13 0-.143-.05-.143-.175l.013-3.685c0-1.291.026-1.755.026-1.868 0-.225-.078-.3-.195-.238-.26.15-1.675.677-1.844.79-.052.025-.078.2-.013.288.052.088.208.213.363.364.117.087.17.238.182.589.026.74.026 1.93.026 2.895 0 1.73-.039 2.87-.143 3.196-.039.1-.116.126-.48.25-.065.013-.104.051-.117.151l-.013.176zm8.68-5.014c-.143 0-1.52.326-1.806.401-.142.038-.155.076-.142.163.052.188.103.238.168.276.429.188.429.276.442.451.026.815-.013 1.667-.013 2.482 0 .226.013.539.182.827.298.476.83.614 1.337.614.26 0 .468-.062.78-.213.363-.188.753-.426.947-.526l-.026.514c0 .1.026.138.091.213.104.113.17.1.299.075.26-.088 1.104-.3 1.792-.376.091-.013.143-.038.22-.426.014-.063-.077-.176-.129-.163-.208.05-.52.125-.584.138-.04.012-.091-.025-.104-.088a5.268 5.268 0 0 1-.052-.777v-1.078c0-.777.052-1.291.052-1.617 0-.3 0-.426-.026-.589-.013-.1-.091-.15-.312-.15-.65 0-1.87.175-1.922.2-.052.013-.052.038-.052.075 0 .1.013.163.04.226.025.063.077.088.168.113.39.088.506.125.558.25.04.1.065.339.065 1.317 0 .564-.026 1.14-.078 1.529-.013.15-.077.2-.168.25-.26.176-.572.239-.78.239-.22 0-.896-.113-.883-.915.013-.765.04-1.705.065-2.344.026-.552.026-.777.013-.878-.026-.163-.052-.213-.13-.213h-.013zm11.147 4.738c0-.075-.026-.113-.078-.125-.545-.113-.61-.113-.636-.301-.078-.664-.052-1.98-.052-2.732 0-.126.026-.214.143-.276.26-.138.675-.263.896-.263.143 0 .376.05.558.225.22.2.325.514.325 1.48 0 .338 0 1.202-.052 1.629-.026.225-.091.313-.35.426-.066.025-.066.062-.066.125.026.05.052.188.078.238.013.025.091.025.13.025.338-.025.844-.062 1.636-.062h.766c.04-.013.091-.213.091-.314 0-.062-.026-.075-.09-.087-.26-.088-.507-.188-.624-.301-.052-.05-.078-.213-.078-.627 0-.539 0-1.128-.013-1.755-.013-1.228-.285-1.454-.506-1.667-.195-.188-.572-.288-.78-.288-.311 0-.584.1-.843.188-.286.125-.637.326-1.338.74-.338-.577-.753-.953-1.441-.953-.156 0-.312.05-.468.113-.377.138-.818.45-1.35.79l.026-.89c0-.1-.04-.126-.117-.126a.738.738 0 0 0-.39.088c-.182.088-.623.388-1.571.865-.026.025.013.175.039.225.039.075.09.126.233.163.286.075.3.088.325.2.013.126.026.427.026 1.016 0 .865 0 1.517-.052 1.817-.026.1-.078.176-.156.214a2.59 2.59 0 0 1-.376.188c-.013.1-.013.388.039.413.285-.037.61-.075 1.298-.075.338 0 1.104-.013 1.221-.013.026 0 .052-.225.052-.3 0-.076-.013-.1-.104-.126-.441-.138-.48-.188-.48-1.63 0-.413 0-1.19.039-1.428.012-.125.09-.226.207-.3.312-.189.585-.252.844-.252.273 0 .507.1.637.226.13.176.194.414.194 1.065 0 .778 0 1.48-.077 2.044-.013.137-.04.175-.468.363-.039.025-.078.05-.078.075 0 .063-.013.226-.013.301 0 .038 0 .038.04.038.687-.063 1.856-.063 2.804-.063v-.326zm10.22-3.735c.13 0 .142-.088.142-.213 0-.163-.012-.339-.026-.414-.025-.1-.156-.188-.233-.188-.052 0-.701.05-1.027.05-.064 0-.181-.075-.181-.175 0-1.015.064-2.269.364-2.645.129-.163.246-.25.429-.25.207 0 .324.1.662.4.195.189.493.39.687.39a.44.44 0 0 0 .326-.151c.233-.25.376-.439.376-.652 0-.175-.039-.276-.182-.389a1.518 1.518 0 0 0-.922-.325c-.39 0-.74.1-1.051.225-.468.2-1.04.54-1.507 1.053-.559.59-.701 1.228-.701 2.193v.301c-.156.05-.442.138-.545.176-.065.025-.091.1-.13.163l-.143.238c-.039.063.038.125.103.138l.429.037c.26.025.286.138.286.326v1.617c0 1.567-.04 1.604-.584 1.78-.143.038-.196.088-.26.326-.013.088 0 .113.129.113.117 0 .819-.063 1.312-.063h1.48c.222 0 .312.012.312-.238 0-.238-.026-.326-.116-.326-.053 0-.533.038-.624.038-.169 0-.195-.351-.195-.828v-2.431c0-.251 0-.301.155-.301.482 0 .78.025.91.025h.325zm.772 3.998c-.013.05 0 .088.078.088.052 0 .467-.025 1.103-.025h1.819l.142-.439c.026-.087-.026-.125-.104-.125l-.753.038c-.13.012-.156-.038-.182-.126-.051-.088-.09-.451-.09-.74v-1.503c0-.389.039-.477.155-.59.182-.15.416-.188.61-.188.144 0 .43.176.52.289a.32.32 0 0 0 .26.125c.09 0 .195-.025.325-.125.09-.088.532-.514.532-.865 0-.338-.442-.702-.818-.702a.599.599 0 0 0-.416.15c-.311.264-.96.828-1.181.99.013-.601.026-.764.078-1.115.025-.088-.182-.213-.208-.213-.026 0-.078 0-.156.05-.35.213-1.325.677-1.857.965-.013.088.078.314.247.364.428.113.454.138.454.551v.915c0 .815-.026 1.454-.052 1.605-.026.163-.078.188-.39.3l-.116.326zm6.51-4.186c.052-.125.208-.2.402-.2.364 0 .598.112.805.238.247.162.39.45.351 1.39-.74.201-2.143.628-2.584.853a.44.44 0 0 0-.234.2c-.143.201-.26.402-.26.69 0 .714.507 1.228 1.377 1.228.143 0 .273-.05.467-.125.156-.063.857-.476 1.403-.802.506.69 1.13.952 2.052.952.324 0 .558-.05.766-.137.52-.214 1.233-.702 1.597-1.116a.281.281 0 0 0 .065-.175c0-.113-.156-.339-.247-.339-.065 0-.13.075-.169.138a1.654 1.654 0 0 1-1.324.614c-.74 0-1.467-.526-1.442-1.404.481-.213 1.702-.676 2.598-1.128.363-.188.52-.326.52-.45 0-.189-.027-.302-.105-.377-.026-.025-.078-.025-.104 0l-.143.088c-.285-.665-.896-.903-1.493-.903-.532 0-.922.188-1.169.339-.181.1-.363.213-.545.326-.403-.527-.987-.715-1.532-.715-.273 0-.585.088-.831.188a5.005 5.005 0 0 0-1.143.69c-.312.288-.52.589-.533.802-.013.225.117.288.338.238.935-.213 1.117-.351 1.117-.464v-.64zm3.753-.125c.376 0 .675.338.675.752 0 .238-.065.288-.26.4-.169.114-.454.251-1.143.502v-.99c0-.188.052-.339.17-.439.22-.175.402-.225.545-.225h.013zm-3.208 3.584c-.299 0-.52-.2-.52-.614 0-.35.053-.489.247-.576.247-.1.91-.314 1.273-.326.039.125.039.489.013.89-.013.2-.052.263-.143.338-.26.138-.597.288-.857.288h-.013zm6.375-1.63c0 .703.181 1.204.558 1.63.52.59 1.584.89 2.078.89.506 0 1.246-.288 1.675-.539.338-.2 1.195-.965 1.195-2.82 0-1.416-.494-2.67-1.442-3.722.338-.201.65-.402.974-.59.169-.1.22-.163.182-.225-.065-.113-.234-.339-.325-.401-.558.326-.896.539-1.272.752-.805-.665-2.013-1.078-2.87-1.078-.104 0-.143.037-.221.163-.052.1-.013.163.026.175.844.213 1.623.69 2.13 1.291-.455.263-.78.464-1.208.727-.273.176-.286.213-.26.25.104.126.143.189.234.277.052.05.104.05.182 0 .506-.289.96-.514 1.402-.752.364.463.663 1.178.715 1.491-.273-.113-.637-.138-.922-.138-.351 0-.896.2-1.3.401-1.012.502-1.531 1.254-1.531 2.206v.013zm1.636-.375c0-.815.13-1.178.324-1.442.156-.213.351-.3.598-.3s.597.075.935.338c.428.326.506.727.506 1.404 0 1.24-.246 1.893-.48 2.143-.169.15-.325.25-.507.25-.181 0-.52-.137-.87-.563-.324-.414-.506-1.228-.506-1.818v-.012zm6.518-2.269c-.143 0-1.52.326-1.805.401-.143.038-.156.076-.143.163.052.188.104.238.169.276.428.188.428.276.441.451.026.815-.013 1.667-.013 2.482 0 .226.013.539.182.827.299.476.831.614 1.338.614.26 0 .467-.062.779-.213.364-.188.753-.426.948-.526l-.026.514c0 .1.026.138.09.213.105.113.17.1.3.075.26-.088 1.103-.3 1.792-.376.09-.013.142-.038.22-.426.013-.063-.078-.176-.13-.163-.207.05-.519.125-.584.138-.039.012-.09-.025-.104-.088a5.268 5.268 0 0 1-.052-.777v-1.078c0-.777.052-1.291.052-1.617 0-.3 0-.426-.026-.589-.013-.1-.09-.15-.311-.15-.65 0-1.87.175-1.922.2-.052.013-.052.038-.052.075 0 .1.013.163.039.226.026.063.078.088.168.113.39.088.507.125.559.25.039.1.065.339.065 1.317 0 .564-.026 1.14-.078 1.529-.013.15-.078.2-.169.25-.26.176-.571.239-.78.239-.22 0-.895-.113-.882-.915.013-.765.039-1.705.065-2.344.026-.552.026-.777.013-.878-.026-.163-.052-.213-.13-.213h-.013zm11.147 4.738c0-.075-.026-.113-.078-.125-.546-.113-.61-.113-.637-.301-.077-.664-.051-1.98-.051-2.732 0-.126.025-.214.142-.276.26-.138.676-.263.896-.263.143 0 .377.05.559.225.22.2.324.514.324 1.48 0 .338 0 1.202-.052 1.629-.025.225-.09.313-.35.426-.065.025-.065.062-.065.125.026.05.052.188.078.238.013.025.09.025.13.025.337-.025.844-.062 1.636-.062h.766c.04-.013.091-.213.091-.314 0-.062-.026-.075-.09-.087-.26-.088-.507-.188-.624-.301-.052-.05-.078-.213-.078-.627 0-.539 0-1.128-.013-1.755-.013-1.228-.286-1.454-.507-1.667-.194-.188-.571-.288-.779-.288-.311 0-.584.1-.844.188-.285.125-.636.326-1.337.74-.338-.577-.754-.953-1.442-.953-.156 0-.311.05-.467.113-.377.138-.818.45-1.35.79l.025-.89c0-.1-.039-.126-.117-.126a.738.738 0 0 0-.39.088c-.181.088-.623.388-1.57.865-.027.025.012.175.038.225.04.075.091.126.234.163.286.075.299.088.325.2.013.126.026.427.026 1.016 0 .865 0 1.517-.052 1.817-.026.1-.078.176-.156.214a2.59 2.59 0 0 1-.377.188c-.013.1-.013.388.04.413.285-.037.61-.075 1.298-.075.338 0 1.104-.013 1.22-.013.027 0 .053-.225.053-.3 0-.076-.013-.1-.104-.126-.442-.138-.48-.188-.48-1.63 0-.413 0-1.19.038-1.428.013-.125.091-.226.208-.3.312-.189.584-.252.844-.252.273 0 .506.1.636.226.13.176.195.414.195 1.065 0 .778 0 1.48-.078 2.044-.013.137-.039.175-.467.363-.04.025-.078.05-.078.075 0 .063-.013.226-.013.301 0 .038 0 .038.039.038.688-.063 1.857-.063 2.805-.063v-.326zM6.086 112.823c0-.617-.146-.987-.714-1.42-.357-.262-1.088-.586-1.948-.802-.957-.231-1.46-.51-1.46-1.11 0-.48.503-.834 1.103-.834.438 0 .877.154 1.169.37.405.278.665.664.811 1.034.065.17.098.2.162.185l.439-.154c-.114-1.312-.13-1.204-.13-1.944 0-.047-.049-.062-.47-.062-.05 0-.082.015-.13.093-.098.123-.18.138-.39.077a6.204 6.204 0 0 0-1.234-.124c-.714 0-1.168.062-1.768.278-.633.216-1.25.756-1.25 1.62 0 .633.195 1.003.52 1.25.389.355 1.103.694 1.8.926.78.262 1.72.57 1.72 1.188 0 .663-.73.91-1.395.91-.909 0-1.866-.632-2.288-1.851-.065-.124-.114-.155-.179-.155-.13 0-.373.047-.454.062.097 1.142.195 1.574.211 2.315 0 .2.049.247.097.247.503 0 .536-.016.6-.062.196-.185.228-.2.407-.154a9.45 9.45 0 0 0 1.541.185c.65 0 1.38-.14 1.964-.37.665-.263 1.266-.757 1.266-1.683v-.015zm2.838 1.836c.016.077.049.093.114.093.08 0 1.217-.046 2.142-.046.714 0 1.769.03 2.029.03.097 0 .13-.015.13-.061l.064-.34c.017-.062-.032-.139-.097-.139-.893-.03-1.152-.154-1.201-.478-.065-.386-.081-.694-.081-1.867v-.941c0-1.05.032-1.528.065-1.836 0-.047.065-.155.324-.155.39 0 1.055.031 1.347.124.114.046.195.17.195.277 0 .093.016.525.033.68.016.123.162.123.535.123.081 0 .097-.031.097-.108.05-1.096.082-1.512.293-2.037.016-.046 0-.093-.098-.123-.308-.078-.422-.093-.438-.047-.146.2-.243.386-.406.417-.34.062-.714.077-2.694.077-2.369 0-2.661-.015-2.791-.093-.081-.015-.162-.2-.162-.385 0-.062-.13-.077-.292-.093l-.179-.015c-.032 0-.081.216-.162.463-.114.308-.26.756-.438 1.219-.033.092-.13.354-.13.493 0 .062.113.185.39.278.097.03.178.016.194-.046.081-.355.34-.849.438-.91.179-.109.73-.247 1.688-.247.179 0 .211.046.227.17.033.215.033.94.033 1.666v.956c0 1.142-.098 1.821-.114 2.037-.049.247-.162.293-1.152.432l.097.432zm10.955-6.558c-1.007 0-2.159.479-2.84 1.034-.844.71-1.201 1.528-1.201 2.515 0 .756.308 1.605.925 2.176.746.71 1.882 1.096 3.164 1.096.666 0 1.932-.34 2.516-.726.86-.586 1.477-1.435 1.477-2.746 0-1.775-1.607-3.349-4.025-3.349h-.016zm-.325.618c.617 0 1.055.216 1.412.601.633.68.746 1.45.746 2.361 0 1.867-.94 2.608-1.59 2.608-.438 0-.828-.124-1.33-.648-.406-.448-.747-1.296-.747-2.238 0-1.002.178-1.728.47-2.144.244-.324.6-.54 1.023-.54h.016zm9.151 5.987c.065 0 .065 0 .082-.047l.097-.494c-1.12-.03-1.152-.092-1.152-1.203v-.833c0-.062.113-.124.162-.14.146-.015.438-.015.811-.015.73 0 .99.031 1.185.186.114.092.146.246.211.54.162-.016.357-.031.422-.047.065-.015.13-.03.13-.092 0-.216-.081-.71-.081-.972 0-.278.016-.54.016-.88 0-.077-.081-.077-.195-.077-.162 0-.308.015-.34.077-.082.463-.244.51-.552.54-.65.046-.99.062-1.672.062-.049 0-.081-.062-.081-.2 0-.078-.016-1.143.065-1.868.016-.185.065-.308.21-.324.13-.015.52-.015.812-.015 1.136 0 1.363.247 1.59 1.018.017.046.212.062.439.077.113 0 .13-.046.13-.092 0-.093.016-.833.032-1.497 0-.108-.065-.17-.113-.17-.357.016-.893.062-1.72.062h-2.208c-.665 0-1.671-.03-1.769-.03-.162 0-.194.03-.194.06v.495c.746.139.746.185.778.57.082.788.05 1.652.05 2.377 0 .926-.033 1.713-.098 2.052-.033.216-.081.262-.26.278l-.373.046c-.016 0-.049.03-.049.062 0 .324.016.37.033.4 0 .078.048.094.113.094.179 0 1.136-.031 1.558-.031.893 0 1.428.03 1.77.03h.161zm6.712-.51c-.584-.108-.941-.154-1.071-.478-.114-.293-.114-1.358-.098-2.284.017-.586.05-.864.065-.987.017-.124.163-.108.244-.016.957.988 2.677 2.562 3.473 3.364.438.432.649.664.876.941.13.155.211.278.276.263.227-.062.828-.278.795-.571 0-.185-.065-.772-.065-2.022 0-.385.033-.987.098-1.928.113-1.42.097-1.466 1.087-1.728l-.097-.448c-.017-.046-.05-.046-.098-.046-.26-.016-1.07.046-1.46.046h-1.364l.017.448c0 .077.016.092.08.092.731.108.942.124.99.494.066.602.082 2.114.05 2.962-1.753-1.573-2.938-2.592-3.344-3.008-.308-.309-.649-.68-.698-.85-.016-.092-.097-.138-.275-.138-1.445.015-1.704 0-2.451-.046-.065-.016-.097 0-.097.061v.31c0 .184.065.2.162.215.47.093.73.154.86.37.065.124.13.294.13 1.45v1.112a11.8 11.8 0 0 1-.13 1.82c-.049.31-.146.448-.795.587-.049.015-.081.077-.081.108l.146.447c.194 0 .827-.03 1.184-.03.439 0 1.023.046 1.558.046.033 0 .098-.062.098-.108l-.065-.448zm10.73.726c1.12 0 2.159-.37 2.727-1.096.552-.725.6-1.312.633-2.469.048-1.435.097-1.929.13-2.145.032-.185.08-.293.194-.308.146-.046.503-.046.552-.077.049-.047.097-.216.13-.402.032-.108 0-.138-.049-.138-.324.015-.925.015-1.25.015h-1.622c-.065 0-.098.03-.13.108-.065.17-.13.309-.13.386 0 .046.032.108.097.108.91.03 1.153.062 1.201.324.098.57.065 1.45.065 2.114 0 1.034-.113 1.65-.487 2.083-.21.262-.697.57-1.347.57-.373 0-.746-.046-1.103-.277-.487-.324-.682-.71-.682-1.45 0-.973.049-1.99.081-2.423.049-.771.114-.864.958-1.05.081-.015.081.016.113-.292.017-.186-.016-.232-.08-.232-.893 0-1.299.031-1.85.046-.423.016-1.591-.015-1.9-.015-.048 0-.08.015-.097.262-.032.186-.016.247.033.247.47.047.681.14.714.232.097.231.113.478.097 1.327-.016.802-.016 1.388-.016 1.944.016.771.113 1.28.649 1.82.454.433 1.38.788 2.353.788h.016zm8.613-.726c-.584-.108-.941-.154-1.071-.478-.114-.293-.114-1.358-.098-2.284.017-.586.05-.864.065-.987.017-.124.163-.108.244-.016.957.988 2.678 2.562 3.473 3.364.438.432.649.664.876.941.13.155.211.278.276.263.227-.062.828-.278.795-.571 0-.185-.065-.772-.065-2.022 0-.385.033-.987.098-1.928.113-1.42.097-1.466 1.087-1.728l-.097-.448c-.017-.046-.05-.046-.098-.046-.26-.016-1.07.046-1.46.046H57.42l.017.448c0 .077.016.092.08.092.731.108.942.124.99.494.066.602.082 2.114.05 2.962-1.753-1.573-2.938-2.592-3.344-3.008-.308-.309-.649-.68-.698-.85-.016-.092-.097-.138-.275-.138-1.445.015-1.704 0-2.45-.046-.066-.016-.098 0-.098.061v.31c0 .184.065.2.162.215.47.093.73.154.86.37.065.124.13.294.13 1.45v1.112a11.8 11.8 0 0 1-.13 1.82c-.049.31-.146.448-.795.587-.049.015-.081.077-.081.108l.146.447c.195 0 .827-.03 1.185-.03.438 0 1.022.046 1.557.046.033 0 .098-.062.098-.108l-.065-.448zm14.264-6.095c-.34 0-.487.047-.714.14a.432.432 0 0 0-.146.2c-.032.077-.178.37-.26.57a131.225 131.225 0 0 1-1.963 4.152c-.357.71-.536.848-1.088 1.002-.016 0-.048.047-.048.078 0 .17.13.478.194.478.033 0 .26-.015.455-.015.243 0 .909 0 1.753.015.064-.077.194-.494.194-.448 0-.061-.016-.108-.065-.108-.568-.092-.665-.185-.665-.339 0-.123.146-.586.227-.771.033-.047.081-.124.244-.14.227-.015 1.623 0 2.044.031.098 0 .228.047.293.186.048.108.292.679.292.802 0 .139-.13.247-.698.37-.016.077.081.479.21.479.196 0 .407-.016.65-.031.26 0 .536-.016.844-.016.438 0 .665 0 1.818.016.064 0 .113-.016.146-.262.032-.247.032-.294-.017-.294-.616-.139-.811-.34-1.038-.787-.925-1.836-1.72-3.842-2.256-5.184-.033-.077-.13-.124-.39-.124h-.016zm-1.395 4.167c-.195 0-.358-.062-.325-.17.34-.895.6-1.497.893-2.222.308.694.568 1.45.827 2.176.049.123-.032.216-.146.216H67.63zM69.803 105c-.178 0-.276.046-.422.2-.34.263-1.022 1.019-1.574 1.744-.081.108-.097.185.114.386.276.262.292.247.422.17.308-.185 1.866-1.188 2.499-1.512.26-.14.243-.17.113-.294-.275-.293-.811-.694-1.136-.694h-.016zm8.051 9.135c-.373-.078-.811-.14-.941-.263-.114-.108-.114-.632-.114-1.527 0-.185.065-.309.39-.309.47 0 .617.139.86.525.227.385.584 1.049 1.022 1.435.78.725 1.802.956 2.938.956.324 0 .34-.015.34-.061 0-.417-.016-.463-.13-.494-.194-.077-.535-.216-.81-.417-.617-.478-1.299-1.28-1.705-2.407-.016-.046.033-.139.082-.17.34-.216.973-.694.973-1.388 0-.556-.243-.988-.633-1.28-.535-.387-1.46-.572-2.385-.572-.812 0-1.412.062-2.061.093-.439 0-1.023.046-1.656.046v.51c0 .046.081.076.211.107s.325.077.47.108c.163.047.212.155.212.324 0 .155.016.942.016 1.45v1.173c0 .988-.016 1.312-.081 1.651-.033.37-.211.51-.795.618-.033.015-.049.015-.033.2.033.263.049.293.227.293.228 0 .893-.03 1.558-.03.715 0 1.688.015 1.932.015.065 0 .113-.03.13-.355l-.017-.231zm.99-3.611c0 .463-.308.725-.568.833-.26.093-.584.124-1.006.124-.422 0-.47-.093-.47-.263 0-1.049.016-1.82.064-2.206a.421.421 0 0 1 .146-.232c.065-.03.211-.046.374-.046.649 0 1.46.401 1.46 1.775v.015zm7.462 3.672c-.584-.108-.941-.154-1.07-.478-.114-.293-.114-1.358-.098-2.284.016-.586.048-.864.065-.987.016-.124.162-.108.243-.016.958.988 2.678 2.562 3.473 3.364.438.432.65.664.876.941.13.155.211.278.276.263.227-.062.828-.278.796-.571 0-.185-.065-.772-.065-2.022 0-.385.032-.987.097-1.928.114-1.42.097-1.466 1.087-1.728l-.097-.448c-.016-.046-.049-.046-.097-.046-.26-.016-1.072.046-1.461.046h-1.363l.016.448c0 .077.016.092.081.092.73.108.941.124.99.494.065.602.081 2.114.049 2.962-1.753-1.573-2.938-2.592-3.343-3.008-.309-.309-.65-.68-.698-.85-.016-.092-.098-.138-.276-.138-1.444.015-1.704 0-2.45-.046-.066-.016-.098 0-.098.061v.31c0 .184.065.2.162.215.47.093.73.154.86.37.065.124.13.294.13 1.45v1.112a11.8 11.8 0 0 1-.13 1.82c-.048.31-.146.448-.795.587-.049.015-.081.077-.081.108l.146.447c.195 0 .828-.03 1.185-.03.438 0 1.022.046 1.558.046.032 0 .097-.062.097-.108l-.065-.448zm10.392-6.095c-.341 0-.487.047-.715.14a.432.432 0 0 0-.146.2c-.032.077-.178.37-.26.57a131.225 131.225 0 0 1-1.963 4.152c-.357.71-.536.848-1.087 1.002-.017 0-.049.047-.049.078 0 .17.13.478.195.478.032 0 .26-.015.454-.015.244 0 .909 0 1.753.015.065-.077.195-.494.195-.448 0-.061-.017-.108-.065-.108-.568-.092-.666-.185-.666-.339 0-.123.146-.586.228-.771.032-.047.08-.124.243-.14.227-.015 1.623 0 2.045.031.097 0 .227.047.292.186.049.108.292.679.292.802 0 .139-.13.247-.698.37-.016.077.081.479.211.479.373 0 .877-.047 1.493-.047.438 0 .666 0 1.818.016.065 0 .113-.016.146-.262.032-.247.032-.294-.016-.294-.617-.139-.812-.34-1.039-.787-.925-1.836-1.72-3.842-2.256-5.184-.032-.077-.13-.124-.39-.124h-.015zm-1.396 4.167c-.195 0-.357-.062-.325-.17.341-.895.6-1.497.893-2.222.308.694.568 1.45.828 2.176.048.123-.033.216-.147.216h-1.249zm12.236 2.098c-.017-.108-.017-.123-.05-.139-.486-.17-.616-.2-.665-.37-.064-.216-.032-.895-.064-1.867-.017-.833 0-1.42.016-2.284a141.87 141.87 0 0 1 2.337 4.907.292.292 0 0 0 .21.093c.163 0 .341-.093.471-.325.098-.17.39-.71.682-1.311.406-.818 1.396-2.963 1.769-3.688-.033 1.96-.114 3.873-.162 4.413-.017.278-.065.386-.552.525-.033.015-.081.03-.081.247 0 .277 0 .308.13.293.357-.031 1.103-.062 1.33-.062h1.915v-.432c0-.077-.08-.093-.178-.108-.6-.139-.65-.2-.682-.787-.032-.463-.032-1.836-.032-2.13 0-1.326-.017-1.697.016-2.02.032-.34.13-.386.811-.463v-.54c0-.047-.048-.047-.194-.047-.146 0-1.59.046-1.802.046-.292-.015-.454-.03-.795-.03-.097.246-.162.447-.276.679-.454.894-.99 2.052-1.542 2.931-.065.108-.13.124-.194.031-.666-1.203-1.25-2.098-1.688-2.87-.179-.34-.276-.525-.357-.74-.211 0-.747.015-1.169.015-.535 0-1.33-.031-1.46-.031-.098 0-.163.123-.195.478-.016.047 0 .155.049.17.779.062.957.108.94.34l-.032.895c-.032.833-.08 2.653-.178 3.379-.065.447-.308.555-.844.601-.016.047.016.433.016.463.017.062.049.078.13.078.73-.016 1.574.015 2.402.061l-.032-.4zm12.814-6.265c-.341 0-.487.047-.714.14a.432.432 0 0 0-.146.2c-.033.077-.179.37-.26.57a131.225 131.225 0 0 1-1.964 4.152c-.357.71-.535.848-1.087 1.002-.016 0-.049.047-.049.078 0 .17.13.478.195.478.032 0 .26-.015.454-.015.244 0 .91 0 1.753.015.065-.077.195-.494.195-.448 0-.061-.016-.108-.065-.108-.568-.092-.665-.185-.665-.339 0-.123.146-.586.227-.771.032-.047.08-.124.243-.14.227-.015 1.623 0 2.045.031.097 0 .227.047.292.186.049.108.292.679.292.802 0 .139-.13.247-.698.37-.016.077.082.479.211.479.374 0 .877-.047 1.493-.047.439 0 .666 0 1.818.016.065 0 .114-.016.146-.262.033-.247.033-.294-.016-.294-.617-.139-.812-.34-1.039-.787-.925-1.836-1.72-3.842-2.256-5.184-.032-.077-.13-.124-.389-.124h-.016zm-1.396 4.167c-.195 0-.357-.062-.325-.17.341-.895.601-1.497.893-2.222.308.694.568 1.45.828 2.176.048.123-.033.216-.146.216h-1.25zm13.418-.757c0-.092-.032-.138-.13-.123-.146 0-.617.03-1.022.03-.584 0-1.445-.045-2.467-.045-.13 0-.146.03-.114.123.082.247.163.432.276.448.081.015.357.046.633.092.422.077.455.247.455.972 0 .633-.065.91-.179 1.05-.081.107-.308.215-.617.215-.405 0-.908-.216-1.379-.617-.714-.617-.925-1.466-.925-2.268 0-1.142.406-1.929.909-2.314.34-.278.665-.37 1.087-.37.763 0 1.51.4 2.175 1.403.065.093.097.124.146.124h.08c.325 0 .374-.031.39-.046.017-.031.017-.124.017-.201-.049-.401-.244-1.188-.26-1.667 0-.123-.049-.17-.13-.185l-.21-.061c-.212-.093-.244-.062-.26 0-.082.185-.114.2-.244.17a7.853 7.853 0 0 0-1.444-.14c-.65 0-2.305.124-3.408 1.034-.65.525-1.039 1.312-1.039 2.33 0 1.08.39 1.883.974 2.407.746.68 1.98 1.019 3.44 1.019.893 0 1.802-.108 2.078-.124.243-.015.389-.061.486-.092.114-.062.195-.2.195-.37 0-.201 0-1.204.081-2.115.017-.077.049-.138.39-.185l.016-.494zm4.044 2.685c-.584-.108-.941-.154-1.07-.478-.114-.293-.114-1.358-.098-2.284.016-.586.048-.864.065-.987.016-.124.162-.108.243-.016.958.988 2.678 2.562 3.473 3.364.438.432.65.664.876.941.13.155.211.278.276.263.228-.062.828-.278.796-.571 0-.185-.065-.772-.065-2.022 0-.385.032-.987.097-1.928.114-1.42.097-1.466 1.087-1.728l-.097-.448c-.016-.046-.049-.046-.097-.046-.26-.016-1.072.046-1.461.046h-1.363l.016.448c0 .077.016.092.081.092.73.108.941.124.99.494.065.602.081 2.114.049 2.962-1.753-1.573-2.938-2.592-3.343-3.008-.309-.309-.65-.68-.698-.85-.016-.092-.098-.138-.276-.138-1.444.015-1.704 0-2.45-.046-.066-.016-.098 0-.098.061v.31c0 .184.065.2.162.215.47.093.73.154.86.37.065.124.13.294.13 1.45v1.112a11.8 11.8 0 0 1-.13 1.82c-.048.31-.146.448-.795.587-.048.015-.081.077-.081.108l.146.447c.195 0 .828-.03 1.185-.03.438 0 1.022.046 1.558.046.032 0 .097-.062.097-.108l-.065-.448zm10.73.726c1.12 0 2.158-.37 2.726-1.096.552-.725.6-1.312.633-2.469.049-1.435.098-1.929.13-2.145.033-.185.081-.293.195-.308.146-.046.503-.046.552-.077.048-.047.097-.216.13-.402.032-.108 0-.138-.05-.138-.324.015-.924.015-1.249.015h-1.623c-.065 0-.097.03-.13.108-.065.17-.13.309-.13.386 0 .046.033.108.098.108.909.03 1.152.062 1.2.324.098.57.066 1.45.066 2.114 0 1.034-.114 1.65-.487 2.083-.211.262-.698.57-1.347.57-.373 0-.747-.046-1.104-.277-.486-.324-.681-.71-.681-1.45 0-.973.048-1.99.08-2.423.05-.771.115-.864.958-1.05.082-.015.082.016.114-.292.016-.186-.016-.232-.081-.232-.893 0-1.298.031-1.85.046-.422.016-1.59-.015-1.899-.015-.049 0-.081.015-.097.262-.033.186-.017.247.032.247.47.047.682.14.714.232.098.231.114.478.098 1.327-.017.802-.017 1.388-.017 1.944.017.771.114 1.28.65 1.82.454.433 1.379.788 2.353.788h.016zm1.688-9.845c-.179 0-.276.046-.422.2-.341.263-1.023 1.02-1.574 1.744-.082.108-.098.186.113.386.276.262.292.247.422.17.308-.185 1.866-1.188 2.5-1.512.259-.14.243-.17.113-.293-.276-.294-.812-.695-1.136-.695h-.016zm9.693 7.746c0-.617-.146-.987-.714-1.42-.357-.262-1.087-.586-1.947-.802-.958-.231-1.461-.51-1.461-1.11 0-.48.503-.834 1.104-.834.438 0 .876.154 1.168.37.406.278.665.664.811 1.034.065.17.098.2.163.185l.438-.154c-.114-1.312-.13-1.204-.13-1.944 0-.047-.049-.062-.47-.062-.05 0-.082.015-.13.093-.098.123-.179.138-.39.077a6.204 6.204 0 0 0-1.233-.124c-.714 0-1.169.062-1.77.278-.632.216-1.249.756-1.249 1.62 0 .633.195 1.003.52 1.25.389.355 1.103.694 1.8.926.78.262 1.721.57 1.721 1.188 0 .663-.73.91-1.395.91-.91 0-1.867-.632-2.289-1.851-.065-.124-.113-.155-.178-.155-.13 0-.374.047-.455.062.098 1.142.195 1.574.211 2.315 0 .2.049.247.098.247.503 0 .535-.016.6-.062.195-.185.227-.2.406-.154a9.45 9.45 0 0 0 1.542.185c.649 0 1.379-.14 1.963-.37.666-.263 1.266-.757 1.266-1.683v-.015zm7.482 0c0-.617-.146-.987-.714-1.42-.358-.262-1.088-.586-1.948-.802-.957-.231-1.46-.51-1.46-1.11 0-.48.503-.834 1.103-.834.438 0 .876.154 1.168.37.406.278.666.664.812 1.034.065.17.097.2.162.185l.438-.154c-.113-1.312-.13-1.204-.13-1.944 0-.047-.048-.062-.47-.062-.049 0-.081.015-.13.093-.097.123-.178.138-.39.077a6.204 6.204 0 0 0-1.233-.124c-.714 0-1.168.062-1.769.278-.633.216-1.25.756-1.25 1.62 0 .633.195 1.003.52 1.25.39.355 1.104.694 1.801.926.78.262 1.72.57 1.72 1.188 0 .663-.73.91-1.395.91-.909 0-1.866-.632-2.288-1.851-.065-.124-.114-.155-.179-.155-.13 0-.373.047-.454.062.097 1.142.195 1.574.21 2.315 0 .2.05.247.098.247.503 0 .536-.016.6-.062.195-.185.228-.2.406-.154a9.45 9.45 0 0 0 1.542.185c.65 0 1.38-.14 1.964-.37.665-.263 1.266-.757 1.266-1.683v-.015zm5.324-4.722c-1.006 0-2.158.479-2.84 1.034-.844.71-1.2 1.528-1.2 2.515 0 .756.308 1.605.924 2.176.747.71 1.883 1.096 3.165 1.096.665 0 1.931-.34 2.515-.726.86-.586 1.477-1.435 1.477-2.746 0-1.775-1.606-3.349-4.025-3.349h-.016zm-.324.618c.616 0 1.055.216 1.412.601.632.68.746 1.45.746 2.361 0 1.867-.941 2.608-1.59 2.608-.439 0-.828-.124-1.331-.648-.406-.448-.747-1.296-.747-2.238 0-1.002.179-1.728.471-2.144.243-.324.6-.54 1.022-.54h.017zm8.273 5.477c-.584-.108-.941-.154-1.071-.478-.114-.293-.114-1.358-.097-2.284.016-.586.048-.864.065-.987.016-.124.162-.108.243-.016.957.988 2.678 2.562 3.473 3.364.438.432.65.664.876.941.13.155.211.278.276.263.227-.062.828-.278.795-.571 0-.185-.065-.772-.065-2.022 0-.385.033-.987.098-1.928.113-1.42.097-1.466 1.087-1.728l-.097-.448c-.016-.046-.049-.046-.098-.046-.26-.016-1.07.046-1.46.046h-1.363l.016.448c0 .077.016.092.081.092.73.108.941.124.99.494.065.602.081 2.114.049 2.962-1.753-1.573-2.938-2.592-3.344-3.008-.308-.309-.649-.68-.697-.85-.017-.092-.098-.138-.276-.138-1.445.015-1.704 0-2.45-.046-.066-.016-.098 0-.098.061v.31c0 .184.065.2.162.215.47.093.73.154.86.37.065.124.13.294.13 1.45v1.112a11.8 11.8 0 0 1-.13 1.82c-.048.31-.146.448-.795.587-.049.015-.081.077-.081.108l.146.447c.195 0 .828-.03 1.185-.03.438 0 1.022.046 1.558.046.032 0 .097-.062.097-.108l-.065-.448zm10.39-6.095c-.34 0-.486.047-.714.14a.432.432 0 0 0-.146.2c-.032.077-.178.37-.26.57a131.225 131.225 0 0 1-1.963 4.152c-.357.71-.535.848-1.087 1.002-.016 0-.049.047-.049.078 0 .17.13.478.195.478.032 0 .26-.015.454-.015.244 0 .909 0 1.753.015.065-.077.195-.494.195-.448 0-.061-.017-.108-.065-.108-.568-.092-.666-.185-.666-.339 0-.123.146-.586.228-.771.032-.047.08-.124.243-.14.227-.015 1.623 0 2.045.031.097 0 .227.047.292.186.049.108.292.679.292.802 0 .139-.13.247-.698.37-.016.077.081.479.211.479.373 0 .877-.047 1.493-.047.438 0 .666 0 1.818.016.065 0 .113-.016.146-.262.032-.247.032-.294-.016-.294-.617-.139-.812-.34-1.039-.787-.925-1.836-1.72-3.842-2.256-5.184-.032-.077-.13-.124-.39-.124h-.015zm-1.395 4.167c-.195 0-.357-.062-.325-.17.341-.895.6-1.497.893-2.222.308.694.568 1.45.828 2.176.048.123-.033.216-.147.216h-1.249zm10.226 1.867c-.374-.078-.812-.14-.942-.263-.113-.108-.113-.632-.113-1.527 0-.185.065-.309.39-.309.47 0 .616.139.86.525.227.385.584 1.049 1.022 1.435.779.725 1.801.956 2.937.956.325 0 .341-.015.341-.061 0-.417-.016-.463-.13-.494-.195-.077-.535-.216-.811-.417-.617-.478-1.299-1.28-1.704-2.407-.017-.046.032-.139.08-.17.342-.216.975-.694.975-1.388 0-.556-.244-.988-.633-1.28-.536-.387-1.46-.572-2.386-.572-.811 0-1.412.062-2.061.093-.438 0-1.022.046-1.655.046v.51c0 .046.08.076.21.107s.325.077.471.108c.163.047.211.155.211.324 0 .155.016.942.016 1.45v1.173c0 .988-.016 1.312-.08 1.651-.033.37-.212.51-.796.618-.032.015-.049.015-.032.2.032.263.048.293.227.293.227 0 .892-.03 1.558-.03.714 0 1.688.015 1.931.015.065 0 .114-.03.13-.355l-.016-.231zm.99-3.611c0 .463-.309.725-.568.833-.26.093-.585.124-1.007.124-.422 0-.47-.093-.47-.263 0-1.049.016-1.82.065-2.206a.421.421 0 0 1 .146-.232c.065-.03.21-.046.373-.046.65 0 1.46.401 1.46 1.775v.015z"/>
    </g>
</svg>
